Coordinates
version=1
nRows=8
nColumns=63
inDegrees=yes

Units are S.I. units (second, meters, Newtons, ...)
If the header above contains a line with 'inDegrees', this indicates whether rotational values are in degrees (yes) or radians (no).

endheader
time	pelvis_tilt	pelvis_list	pelvis_rotation	pelvis_tx	pelvis_ty	pelvis_tz	hip_flexion_r	hip_adduction_r	hip_rotation_r	knee_angle_r	knee_angle_r_beta	ankle_angle_r	subtalar_angle_r	mtp_angle_r	hip_flexion_l	hip_adduction_l	hip_rotation_l	knee_angle_l	knee_angle_l_beta	ankle_angle_l	subtalar_angle_l	mtp_angle_l	L5_S1_Flex_Ext	L5_S1_Lat_Bending	L5_S1_axial_rotation	L4_L5_Flex_Ext	L4_L5_Lat_Bending	L4_L5_axial_rotation	L3_L4_Flex_Ext	L3_L4_Lat_Bending	L3_L4_axial_rotation	L2_L3_Flex_Ext	L2_L3_Lat_Bending	L2_L3_axial_rotation	L1_L2_Flex_Ext	L1_L2_Lat_Bending	L1_L2_axial_rotation	L1_T12_Flex_Ext	L1_T12_Lat_Bending	L1_T12_axial_rotation	Abs_r3	Abs_r2	Abs_r1	Abs_t1	Abs_t2	neck_flexion	neck_bending	neck_rotation	arm_flex_r	arm_add_r	arm_rot_r	elbow_flex_r	pro_sup_r	wrist_flex_r	wrist_dev_r	arm_flex_l	arm_add_l	arm_rot_l	elbow_flex_l	pro_sup_l	wrist_flex_l	wrist_dev_l
      0.53333333	      1.32913669	     -2.34523660	     82.48969349	      0.34899532	      0.87868206	      0.59211157	      1.00346869	      1.37323596	     18.32809187	      5.66090120	      0.09880136	     26.79208284	    -14.46659871	      0.00000000	      3.00570952	     -4.89624580	    -15.65663389	     10.40570983	      0.18161390	     39.47681131	     16.74638928	      0.00000000	      0.12580572	      0.40596055	      0.64712453	      0.23363381	      0.53992754	      0.68756981	      0.20668622	      0.98705249	      0.68756981	      0.14378336	      0.98705249	      0.56623396	      0.11682319	      0.82783476	      0.52578868	      0.07188539	      0.62883290	      0.48534340	      0.89861769	      4.59230697	      3.59911249	      0.00000000	      0.00000000	     27.97181318	     -8.80963699	     -6.28351662	     12.61500526	    -21.46102104	     52.97443274	     59.36760292	     87.70811510	     13.50154790	      2.47892833	     16.71135882	    -14.02951544	     72.99506535	     53.90831562	     49.00661432	     -4.52208987	    -18.70629285
      0.55000000	      0.87564890	     -2.60906419	     81.86014931	      0.34868185	      0.87785825	      0.59435024	      1.76069239	      1.03772865	     18.27872103	      6.20131467	      0.10823336	     27.05836113	    -14.38727004	      0.00000000	      3.48931224	     -4.47955391	    -16.23269611	     10.61474142	      0.18526219	     39.51651149	     16.75268912	      0.00000000	      0.14129008	      0.37238642	      0.69755853	      0.26238982	      0.49527393	      0.74115593	      0.23212548	      0.90542033	      0.74115593	      0.16148044	      0.90542033	      0.61036371	      0.13120197	      0.75937038	      0.56676630	      0.08073315	      0.57682656	      0.52316890	      1.00922095	      4.21250962	      3.87961126	      0.00000000	      0.00000000	     28.01719515	     -8.71790266	     -5.86665966	     13.43723797	    -23.38591804	     50.52307504	     62.82335062	     87.47035045	     15.50745343	      3.67762241	     16.98284160	    -14.86343816	     70.88284124	     56.39354216	     50.80079682	     -3.32265353	    -17.98180879
      0.56666667	      0.43634000	     -2.96997451	     81.24799061	      0.34802053	      0.87695534	      0.59672363	      2.70777856	      0.73240927	     17.82414406	      6.88805678	      0.12021927	     27.59938064	    -13.81175143	      0.00000000	      4.07006178	     -4.07413107	    -16.81643234	     10.77532709	      0.18806494	     39.50773643	     16.73684030	      0.00000000	      0.16810890	      0.34461342	      0.73900339	      0.31219504	      0.45833584	      0.78519110	      0.27618611	      0.83789306	      0.78519110	      0.19213166	      0.83789306	      0.64662796	      0.15610592	      0.70273568	      0.60044025	      0.09605742	      0.53380618	      0.55425254	      1.20078505	      3.89833588	      4.11011514	      0.00000000	      0.00000000	     28.06452586	     -8.66528012	     -5.52815131	     13.54829751	    -25.23360752	     46.52313960	     66.71513472	     87.01534194	     15.34105558	      5.03717520	     17.06469727	    -15.75349667	     68.67041340	     58.72207042	     53.00947195	     -2.11830627	    -16.89948720
      0.58333333	     -0.02969834	     -3.27643824	     80.81102245	      0.34708769	      0.87622596	      0.59914969	      3.61625649	      0.41198048	     17.44322126	      7.52970125	      0.13141808	     28.17648574	    -13.63277761	      0.00000000	      4.63938430	     -3.62699468	    -17.08191674	     10.95279849	      0.19116240	     39.42110281	     16.65918352	      0.00000000	      0.19097426	      0.31405414	      0.75696086	      0.35465829	      0.41769200	      0.80427091	      0.31375161	      0.76359123	      0.80427091	      0.21826448	      0.76359123	      0.66234075	      0.17733869	      0.64041919	      0.61503070	      0.10912269	      0.48646986	      0.56772064	      1.36411002	      3.55264319	      4.20998921	      0.00000000	      0.00000000	     28.10059249	     -8.22431482	     -4.60500049	     13.06026631	    -26.89395591	     41.78071555	     70.87432198	     86.32340954	     12.07056565	      5.78011571	     17.30873331	    -16.85154799	     67.53261087	     60.95068205	     53.73128279	     -1.68717088	    -15.83113603
      0.60000000	     -0.39519506	     -3.57304387	     80.38348208	      0.34601712	      0.87563684	      0.60157833	      4.55985680	      0.18502872	     16.68445744	      8.17818151	      0.14273619	     29.14263469	    -12.79576341	      0.00000000	      5.17737661	     -3.28713930	    -17.46693226	     11.10184288	      0.19376371	     39.34825364	     16.62971475	      0.00000000	      0.21150637	      0.28755761	      0.80826926	      0.39278848	      0.38245162	      0.85878609	      0.34748381	      0.69916758	      0.85878609	      0.24173063	      0.69916758	      0.70723560	      0.19640481	      0.58638748	      0.65671878	      0.12085474	      0.44542674	      0.60620195	      1.51076885	      3.25290921	      4.49535116	      0.00000000	      0.00000000	     28.11903560	     -7.80092252	     -4.29154305	     11.99405495	    -28.67334552	     36.74042392	     75.89563985	     85.85939510	      6.40112445	      7.24228867	     17.52031469	    -17.86154763	     66.64584846	     62.72577209	     55.28551600	     -1.33794232	    -13.97993424
      0.61666667	     -0.89609387	     -3.85150366	     79.36819491	      0.34450477	      0.87511253	      0.60503084	      6.77124131	     -0.90920824	      5.81101934	     10.99872757	      0.19196401	     34.34544007	      2.85348823	      0.00000000	      5.74039079	     -2.81725580	    -18.54249654	     11.28248776	      0.19691656	     39.20524665	     16.65754128	      0.00000000	      0.21681576	      0.24897028	      0.94734591	      0.40264854	      0.33113047	      1.00655503	      0.35620660	      0.60534634	      1.00655503	      0.24779873	      0.60534634	      0.82892767	      0.20133511	      0.50770019	      0.76971855	      0.12388852	      0.38565496	      0.71050943	      1.54869326	      2.81640159	      5.26885376	      0.00000000	      0.00000000	     28.12838610	     -8.10374684	     -5.13268957	     11.37630893	    -30.84682980	     32.67604408	     81.08125136	     86.88816737	     -0.56638608	      7.79732596	     17.52591838	    -18.56400222	     65.25215676	     63.84193919	     58.33857503	     -0.72297309	    -11.25109289
      0.63333333	     -1.06570112	     -3.97540874	     79.38971138	      0.34264627	      0.87517387	      0.60721214	      7.58284517	     -1.04385646	      5.12577148	     11.73698039	      0.20484895	     35.28333354	      3.07653703	      0.00000000	      6.23590538	     -2.64122661	    -18.63658496	     11.61371548	      0.20269757	     39.08709233	     16.68886792	      0.00000000	      0.22398193	      0.23362289	      0.85640656	      0.41595685	      0.31071845	      0.90993197	      0.36797992	      0.56803070	      0.90993197	      0.25598895	      0.56803070	      0.74935574	      0.20798962	      0.47640380	      0.69583033	      0.12798328	      0.36188186	      0.64230492	      1.59988056	      2.64278887	      4.76307635	      0.00000000	      0.00000000	     28.09800345	     -7.32040589	     -4.82266052	     10.44134664	    -32.62862886	     28.14305550	     85.84129834	     88.14455910	     -5.09572196	      6.74907095	     17.26894043	    -19.15943931	     64.46155676	     64.33585151	     58.45900713	     -0.62602014	     -9.73862597
      0.65000000	     -1.21469113	     -3.92618246	     79.27312530	      0.34094080	      0.87550107	      0.60906755	      8.26870341	     -1.23637644	      4.14246885	     12.57740753	      0.21951717	     36.35578204	      4.01160994	      0.00000000	      6.51047976	     -2.45307677	    -18.86288304	     11.89126964	      0.20754181	     39.01500582	     16.72476687	      0.00000000	      0.21238268	      0.21726568	      0.78310633	      0.39441588	      0.28896335	      0.83205048	      0.34892351	      0.52825977	      0.83205048	      0.24273217	      0.52825977	      0.68521804	      0.19721856	      0.44304817	      0.63627390	      0.12135546	      0.33654453	      0.58732975	      1.51702825	      2.45775279	      4.35540250	      0.00000000	      0.00000000	     28.04180286	     -6.87120987	     -4.98664432	      9.62730582	    -34.66516516	     23.84751193	     90.69846970	     88.79246272	     -8.72817433	      5.27421174	     17.07112370	    -19.52662819	     63.53993124	     64.34585700	     58.31063474	     -0.12308907	     -7.56671067
